<?xml version="1.0" encoding="utf-8"?>
<!-- Generator: Adobe Illustrator 17.0.0, SVG Export Plug-In . SVG Version: 6.00 Build 0)  -->
<!DOCTYPE svg PUBLIC "-//W3C//DTD SVG 1.1//EN" "http://www.w3.org/Graphics/SVG/1.1/DTD/svg11.dtd">
<svg version="1.1" id="Layer_1" xmlns="http://www.w3.org/2000/svg" xmlns:xlink="http://www.w3.org/1999/xlink" x="0px" y="0px"
	 width="24px" height="24px" viewBox="0 0 24 24" enable-background="new 0 0 24 24" xml:space="preserve">
<g>
	<g>
		<path d="M16,19H8c-1.654,0-3-1.346-3-3V8c0-1.654,1.346-3,3-3h5c0.553,0,1,0.448,1,1s-0.447,1-1,1H8C7.448,7,7,7.449,7,8v8
			c0,0.551,0.448,1,1,1h8c0.552,0,1-0.449,1-1v-3c0-0.552,0.447-1,1-1s1,0.448,1,1v3C19,17.654,17.654,19,16,19z"/>
	</g>
</g>
<g>
	<g>
		<path d="M11.833,15.167c-0.35,0-0.689-0.139-0.941-0.391l-2.668-2.667c-0.52-0.521-0.52-1.365,0-1.885
			c0.521-0.521,1.365-0.521,1.887,0l1.416,1.417l3.475-5.455c0.357-0.644,1.17-0.877,1.814-0.519
			c0.643,0.358,0.875,1.17,0.518,1.813l-4.334,7c-0.203,0.366-0.566,0.615-0.98,0.673C11.956,15.163,11.896,15.167,11.833,15.167z"
			/>
	</g>
</g>
<g>
	<circle fill="#FFFFFF" stroke="#000000" stroke-miterlimit="10" cx="16" cy="14.583" r="4.417"/>
	
		<line fill="none" stroke="#000000" stroke-linecap="round" stroke-miterlimit="10" x1="14.497" y1="13.081" x2="17.503" y2="16.086"/>
	
		<line fill="none" stroke="#000000" stroke-linecap="round" stroke-miterlimit="10" x1="14.497" y1="16.086" x2="17.503" y2="13.081"/>
</g>
</svg>
